<?xml version="1.0" encoding="UTF-8" standalone="no"?>
<!-- Created with Inkscape (http://www.inkscape.org/) -->

<svg
   xmlns:osb="http://www.openswatchbook.org/uri/2009/osb"
   xmlns:dc="http://purl.org/dc/elements/1.1/"
   xmlns:cc="http://creativecommons.org/ns#"
   xmlns:rdf="http://www.w3.org/1999/02/22-rdf-syntax-ns#"
   xmlns:svg="http://www.w3.org/2000/svg"
   xmlns="http://www.w3.org/2000/svg"
   xmlns:xlink="http://www.w3.org/1999/xlink"
   xmlns:sodipodi="http://sodipodi.sourceforge.net/DTD/sodipodi-0.dtd"
   xmlns:inkscape="http://www.inkscape.org/namespaces/inkscape"
   width="148.77336mm"
   height="39.077183mm"
   viewBox="0 0 148.77336 39.077183"
   version="1.1"
   id="svg8"
   sodipodi:docname="logo.svg"
   inkscape:version="0.92.3 (2405546, 2018-03-11)">
  <defs
     id="defs2">
    <linearGradient
       inkscape:collect="always"
       id="linearGradient3093">
      <stop
         style="stop-color:#8853a9;stop-opacity:1;"
         offset="0"
         id="stop3089" />
      <stop
         id="stop3673"
         offset="0.51959199"
         style="stop-color:#88c4a9;stop-opacity:1" />
      <stop
         style="stop-color:#ffffff;stop-opacity:0"
         offset="1"
         id="stop3675" />
    </linearGradient>
    <linearGradient
       id="linearGradient2892"
       osb:paint="solid">
      <stop
         style="stop-color:#000000;stop-opacity:1;"
         offset="0"
         id="stop2890" />
    </linearGradient>
    <linearGradient
       inkscape:collect="always"
       xlink:href="#linearGradient3093"
       id="linearGradient1699"
       gradientUnits="userSpaceOnUse"
       gradientTransform="matrix(-0.65270849,0,0,0.65270849,463.02855,-173.06208)"
       x1="312.099"
       y1="162.15048"
       x2="407.87338"
       y2="234.14963"
       spreadMethod="pad" />
  </defs>
  <sodipodi:namedview
     id="base"
     pagecolor="#ffffff"
     bordercolor="#666666"
     borderopacity="1.0"
     inkscape:pageopacity="0.0"
     inkscape:pageshadow="2"
     inkscape:zoom="1.4142136"
     inkscape:cx="408.83718"
     inkscape:cy="42.904068"
     inkscape:document-units="mm"
     inkscape:current-layer="layer1"
     showgrid="true"
     showguides="false"
     inkscape:window-width="1920"
     inkscape:window-height="1025"
     inkscape:window-x="0"
     inkscape:window-y="27"
     inkscape:window-maximized="1">
    <inkscape:grid
       type="xygrid"
       id="grid838"
       originx="-2.6127424"
       originy="2.0465055" />
  </sodipodi:namedview>
  <metadata
     id="metadata5">
    <rdf:RDF>
      <cc:Work
         rdf:about="">
        <dc:format>image/svg+xml</dc:format>
        <dc:type
           rdf:resource="http://purl.org/dc/dcmitype/StillImage" />
        <dc:title />
      </cc:Work>
    </rdf:RDF>
  </metadata>
  <g
     inkscape:label="Layer 1"
     inkscape:groupmode="layer"
     id="layer1"
     transform="translate(-175.55337,71.529223)">
    <circle
       style="opacity:1;fill:#000000;fill-opacity:1;stroke:none;stroke-width:0;stroke-linecap:butt;stroke-linejoin:round;stroke-miterlimit:4;stroke-dasharray:none;stroke-dashoffset:0;stroke-opacity:1;paint-order:normal"
       id="path4930"
       cx="714.35461"
       cy="-683.60779"
       r="6.9222808" />
    <path
       inkscape:connector-curvature="0"
       style="opacity:1;fill:url(#linearGradient1699);fill-opacity:1;stroke:none;stroke-width:0;stroke-linecap:butt;stroke-linejoin:round;stroke-miterlimit:4;stroke-dasharray:none;stroke-dashoffset:0;stroke-opacity:1;paint-order:normal;"
       d="m 261.98109,-71.529223 c 0.0681,0 0.0861,0.143123 0.0395,0.316388 -0.10684,0.396762 -0.57468,1.150304 -1.30466,2.10136 -0.22784,0.296818 -0.39562,0.546148 -0.37271,0.554172 0.0894,0.03136 0.60077,-0.253526 1.01189,-0.563624 0.42093,-0.317483 1.71291,-1.495023 2.00016,-1.823079 0.10756,-0.122859 0.15606,-0.1519 0.19294,-0.115019 0.0784,0.0784 0.0485,0.479956 -0.0547,0.738676 -0.22023,0.551885 -1.01296,1.546803 -1.87604,2.354325 -0.28992,0.271256 -0.48434,0.485283 -0.47155,0.518764 0.0257,0.06693 -0.26727,0.396937 -0.48233,0.543388 -0.21071,0.143473 -0.18703,0.172924 0.0762,0.09477 0.68437,-0.203164 1.60281,-0.854327 2.86027,-2.028502 0.35619,-0.332594 0.6744,-0.637332 0.70697,-0.676953 0.0737,-0.08925 0.11052,-0.08984 0.19665,-0.0035 0.26635,0.26635 -0.3359,1.26768 -1.59372,2.650478 -0.19261,0.211748 -0.31037,0.373258 -0.27962,0.383507 0.10558,0.03521 0.54493,-0.09375 0.86179,-0.252973 0.38167,-0.191785 0.88925,-0.548198 1.33367,-0.936331 0.28767,-0.251239 0.3254,-0.271939 0.38553,-0.211827 0.0396,0.03959 0.0746,0.171679 0.0857,0.325498 0.0159,0.21937 0.002,0.286972 -0.0908,0.445232 -0.23624,0.403138 -0.86569,0.866363 -1.80151,1.325908 l -0.53865,0.264441 -0.10793,0.268146 c -0.0845,0.209979 -0.13803,0.281865 -0.24724,0.332576 -0.0767,0.03565 -0.14032,0.07936 -0.14032,0.09714 -0.002,0.06456 0.53686,0.0303 0.91306,-0.05799 0.25706,-0.06036 0.56687,-0.181237 0.93161,-0.363946 0.30054,-0.150551 0.5619,-0.264318 0.58083,-0.252632 0.0748,0.04626 0.028,0.271291 -0.0904,0.434781 -0.14743,0.203558 -0.32486,0.350674 -0.46512,0.385855 -0.13149,0.03302 -0.12844,0.08611 0.007,0.120083 0.0594,0.01489 0.10794,0.05265 0.10794,0.08366 0,0.06132 -0.14292,0.203786 -0.28064,0.279956 -0.0846,0.04713 -0.0843,0.048 0.007,0.04923 0.2524,0.0035 0.29103,0.107162 0.12243,0.328197 -0.15433,0.202349 -0.56799,0.438766 -1.09621,0.626013 l -0.45839,0.162237 0.15314,0.06544 c 0.20162,0.08585 0.74689,0.192941 1.21966,0.239475 0.20889,0.02067 0.39189,0.04959 0.40677,0.06439 0.0473,0.04722 -0.16717,0.240832 -0.74339,0.671224 -0.65925,0.492395 -0.9466,0.679738 -1.36436,0.89012 -0.26975,0.135852 -0.29775,0.160932 -0.23274,0.208446 0.18924,0.138384 -0.0956,0.378209 -0.85573,0.720806 -0.3717,0.167537 -0.40877,0.193852 -0.30221,0.213168 0.20768,0.03767 0.13538,0.138988 -0.24116,0.338648 -0.3116,0.165242 -0.35259,0.199835 -0.29144,0.244546 0.11202,0.08191 0.086,0.133618 -0.13389,0.267814 -0.28013,0.1709 -0.52067,0.26134 -0.79299,0.297492 l -0.22936,0.03031 0.14065,0.06648 c 0.20298,0.09613 0.16603,0.207965 -0.13728,0.415885 -0.24578,0.168483 -0.26243,0.172995 -0.61152,0.171681 -0.31212,-8.76e-4 -0.34811,0.0061 -0.27624,0.05632 0.0455,0.03189 0.0826,0.08593 0.0826,0.120075 0,0.07122 -0.30015,0.303091 -0.5073,0.391943 -0.1293,0.05545 -0.19233,0.145366 -0.10186,0.145366 0.0757,0 0.0894,0.137296 0.026,0.26006 -0.0354,0.06868 -0.14214,0.187098 -0.23713,0.263425 -0.16626,0.133617 -0.16993,0.14187 -0.0975,0.221945 0.0719,0.07954 0.0708,0.08699 -0.0263,0.16561 -0.0559,0.0452 -0.1286,0.08199 -0.16157,0.08199 -0.0726,0 -0.0734,0.01 -0.0104,0.148072 0.0619,0.13579 -8.8e-4,0.22516 -0.19529,0.276915 -0.0994,0.02645 -0.1313,0.0579 -0.12177,0.118734 0.0327,0.20871 0.0171,0.325262 -0.0543,0.404085 -0.0754,0.08331 -0.31604,0.186844 -0.55014,0.236776 -0.11541,0.02462 -0.11608,0.02628 -0.0452,0.149763 0.10184,0.177436 0.0263,0.318289 -0.24489,0.455691 l -0.21586,0.109282 0.10625,0.114337 c 0.12815,0.138295 0.13431,0.235672 0.0213,0.337973 -0.0935,0.08462 -0.50261,0.19365 -0.72958,0.194955 -0.12881,5.17e-4 -0.14215,0.01156 -0.12041,0.09816 0.0455,0.180992 -0.11552,0.289941 -0.48773,0.330212 l -0.23713,0.02567 -0.0351,0.177427 c -0.0502,0.254375 -0.20363,0.38349 -0.45636,0.38384 -0.111,1.24e-4 -0.26517,-0.01603 -0.34236,-0.03574 -0.12837,-0.03276 -0.14099,-0.02724 -0.14099,0.06474 -0.002,0.305088 -0.37475,0.371182 -0.92183,0.163254 -0.12175,-0.04626 -0.22405,-0.08427 -0.22666,-0.08436 -0.003,-1.7e-5 -0.0155,0.07981 -0.0287,0.177077 -0.056,0.418171 -0.41534,0.505693 -0.95659,0.233071 -0.33916,-0.17084 -0.36966,-0.177796 -0.36966,-0.08366 0,0.128746 -0.22086,0.533559 -0.3508,0.642894 -0.14171,0.119251 -0.313,0.140047 -0.49009,0.05939 -0.0851,-0.03872 -0.12319,-0.03872 -0.16189,0 -0.0795,0.07954 -0.22379,0.05983 -0.39094,-0.0537 -0.15103,-0.102501 -0.15479,-0.10286 -0.22834,-0.02164 -0.10235,0.113093 -0.30607,0.10428 -0.51506,-0.02225 -0.15247,-0.09235 -0.18076,-0.09704 -0.24218,-0.04152 -0.10199,0.09239 -0.30544,0.139863 -0.41824,0.09815 -0.0756,-0.02803 -0.10444,-0.01901 -0.12481,0.03845 -0.0725,0.204495 -0.25954,0.281776 -0.44321,0.183489 -0.0622,-0.03328 -0.0833,-0.02418 -0.10084,0.04284 -0.0122,0.04669 -0.0765,0.105603 -0.14302,0.130867 -0.167,0.06352 -0.71203,-0.05081 -0.92993,-0.194956 -0.37121,-0.245658 -0.78181,-0.937565 -1.07563,-1.812628 -0.0873,-0.260148 -0.18181,-0.4807 -0.21014,-0.4901 -0.0975,-0.0325 -0.20854,0.125646 -0.42803,0.610175 -0.3491,0.770773 -0.37406,0.900607 -0.37406,1.950249 v 0.906651 l 0.14673,0.270853 c 0.0807,0.148912 0.26713,0.39176 0.41386,0.539673 0.29628,0.298676 0.93663,1.086759 1.49894,1.844673 1.731,2.333117 2.63221,4.182126 2.64272,5.421371 0.004,0.402421 -0.006,0.453746 -0.12682,0.690776 -0.12474,0.244468 -0.13875,0.256697 -0.30896,0.269163 -0.0981,0.0071 -0.2504,-0.01708 -0.33866,-0.05397 -0.18348,-0.07665 -0.20675,-0.08076 -0.17639,-0.03171 0.0627,0.10174 0.10786,0.76098 0.0654,0.95894 -0.0561,0.261717 -0.2331,0.430383 -0.45096,0.430383 -0.18921,0 -0.54245,-0.133188 -0.86012,-0.324483 -0.13865,-0.08348 -0.26082,-0.142841 -0.27185,-0.131874 -0.011,0.01095 0.003,0.151436 0.0306,0.31199 0.14685,0.843299 -0.23963,1.252614 -0.9731,1.030107 -0.11655,-0.03539 -0.21216,-0.06465 -0.21216,-0.06474 0,-1.75e-4 -0.002,0.227998 -0.002,0.506955 -8.8e-4,0.440106 -0.0138,0.531325 -0.0975,0.689769 -0.11549,0.21881 -0.28124,0.31369 -0.54745,0.31369 -0.20925,0 -0.62896,-0.149404 -0.83884,-0.298842 -0.17996,-0.128265 -0.22182,-0.116395 -0.17404,0.05028 0.0904,0.315162 0.0178,0.573444 -0.1889,0.672565 -0.0932,0.04468 -0.16812,0.04643 -0.35112,0.0087 -0.23898,-0.04958 -0.77907,-0.292139 -1.09587,-0.492115 l -0.17877,-0.113005 -0.0257,0.118734 c -0.0573,0.266955 -0.15933,0.547251 -0.25331,0.695507 -0.1502,0.236917 -0.51581,0.558482 -0.76971,0.676953 h -3.5e-4 c 0,0 -3.4e-4,3.51e-4 -3.4e-4,3.51e-4 -0.12411,0.05772 -0.24512,0.105059 -0.26882,0.105235 -0.0238,1.66e-4 -0.16472,-0.05721 -0.31336,-0.127504 -0.48802,-0.230872 -0.8625,-0.707964 -0.96803,-1.233498 l -0.0469,-0.234078 -0.17776,0.110639 c -0.30115,0.187449 -0.86073,0.441815 -1.08069,0.4911 -0.43522,0.09752 -0.61836,-0.08147 -0.57476,-0.561934 0.0127,-0.141651 0.0191,-0.257695 0.0145,-0.257695 -0.005,0 -0.17852,0.08743 -0.38619,0.194281 -0.3252,0.167326 -0.41386,0.194281 -0.63918,0.194281 -0.23833,0 -0.27406,-0.0127 -0.40375,-0.142334 -0.1852,-0.185188 -0.23745,-0.386512 -0.23745,-0.921832 v -0.438153 l -0.20508,0.06342 c -0.44306,0.137018 -0.80185,0.01586 -0.94442,-0.318744 -0.0692,-0.162394 -0.0756,-0.557754 -0.0135,-0.82739 0.024,-0.104052 0.0347,-0.198083 0.024,-0.208787 -0.0107,-0.01069 -0.15212,0.06054 -0.31437,0.15853 -1.02494,0.618726 -1.49001,0.249847 -1.24024,-0.983555 l 0.029,-0.14335 -0.16258,0.0678 c -0.25555,0.106777 -0.47393,0.08961 -0.58049,-0.0459 -0.30526,-0.388115 -0.28034,-1.261689 0.0631,-2.217387 0.14935,-0.415658 0.51578,-1.190531 0.80277,-1.697275 0.69427,-1.225869 2.17915,-3.264008 3.06299,-4.204394 0.50851,-0.541076 0.60139,-0.80083 0.60139,-1.678389 0,-0.846854 -0.087,-1.267469 -0.41689,-2.012647 -0.20219,-0.456768 -0.31817,-0.621851 -0.41184,-0.585883 -0.0402,0.01542 -0.12625,0.201395 -0.20812,0.450287 -0.2893,0.879634 -0.71273,1.601737 -1.08339,1.847037 -0.23008,0.152268 -0.78221,0.268321 -0.9559,0.201026 -0.0753,-0.02917 -0.11873,-0.07779 -0.11873,-0.133232 0,-0.101757 -0.005,-0.10308 -0.14571,-0.03881 -0.15748,0.07174 -0.30946,0.01638 -0.37237,-0.135589 -0.0442,-0.106882 -0.0717,-0.125733 -0.14606,-0.101187 -0.14755,0.0487 -0.29529,0.02138 -0.39632,-0.07358 l -0.0941,-0.08871 -0.16257,0.110299 c -0.2021,0.137165 -0.47,0.150935 -0.54677,0.02803 -0.05,-0.08015 -0.0559,-0.07954 -0.20474,0.02164 -0.16697,0.113504 -0.30341,0.132698 -0.38249,0.05361 -0.0387,-0.03872 -0.0765,-0.03872 -0.16156,0 -0.0611,0.02785 -0.17205,0.05063 -0.24623,0.05063 -0.1819,0 -0.45946,-0.291044 -0.567,-0.59466 -0.044,-0.124061 -0.0858,-0.225642 -0.0934,-0.225642 -0.007,0 -0.1558,0.06798 -0.32922,0.151102 -0.54986,0.263521 -0.8417,0.199073 -0.95117,-0.210136 l -0.0506,-0.188211 -0.23712,0.08331 c -0.54228,0.190585 -0.87057,0.136097 -0.87057,-0.144366 0,-0.117779 -0.0115,-0.130271 -0.0971,-0.106251 -0.44176,0.123736 -0.71458,0.04529 -0.82772,-0.237451 -0.0375,-0.09364 -0.0682,-0.196164 -0.0682,-0.228016 0,-0.03942 -0.083,-0.06553 -0.26039,-0.08165 -0.33995,-0.03083 -0.49129,-0.125935 -0.45872,-0.288723 0.0238,-0.119032 0.0222,-0.120093 -0.25736,-0.148746 -0.61953,-0.06352 -0.85723,-0.29384 -0.55857,-0.541707 0.0826,-0.06859 0.0868,-0.131541 0.008,-0.131541 -0.0321,0 -0.13891,-0.05852 -0.23747,-0.12986 -0.13994,-0.101363 -0.1791,-0.157392 -0.1791,-0.256346 0,-0.06973 0.0194,-0.138786 0.043,-0.153468 0.0907,-0.05606 0.0347,-0.104254 -0.20068,-0.172696 -0.14437,-0.04196 -0.29617,-0.123123 -0.37204,-0.199003 -0.12739,-0.127415 -0.13075,-0.148982 -0.0667,-0.426003 0.007,-0.03521 -0.0393,-0.07017 -0.11974,-0.0877 -0.0733,-0.01603 -0.15588,-0.04301 -0.18349,-0.06001 -0.0616,-0.03802 -0.0666,-0.226677 -0.007,-0.263434 0.0634,-0.03916 0.0525,-0.107933 -0.0168,-0.107933 -0.0329,0 -0.10336,-0.03521 -0.15649,-0.07823 -0.082,-0.0664 -0.0885,-0.09104 -0.0439,-0.162578 0.0464,-0.07437 0.0268,-0.110132 -0.1673,-0.304237 -0.22189,-0.221902 -0.28025,-0.384436 -0.15517,-0.432415 0.10379,-0.03986 0.0769,-0.07902 -0.12007,-0.174721 -0.24725,-0.120126 -0.46277,-0.305998 -0.46277,-0.399363 0,-0.04178 0.0436,-0.09684 0.0971,-0.122431 0.0757,-0.03627 0.0341,-0.04126 -0.18753,-0.0226 -0.17273,0.01454 -0.34697,0.0035 -0.44321,-0.02829 -0.17113,-0.0565 -0.58892,-0.365419 -0.58892,-0.435455 0,-0.02357 0.0631,-0.08147 0.1403,-0.128502 l 0.14033,-0.08532 -0.11435,-3.51e-4 c -0.29689,-3.42e-4 -1.05406,-0.345559 -1.10464,-0.503582 -0.009,-0.02768 0.026,-0.06395 0.0776,-0.08024 0.0801,-0.02541 0.0474,-0.05475 -0.22429,-0.201709 -0.49266,-0.266483 -0.5745,-0.377288 -0.28333,-0.383167 0.13703,-0.0026 0.13738,-0.0035 0.0301,-0.04959 -0.5081,-0.220263 -1.08155,-0.527944 -1.18458,-0.635473 -0.12441,-0.129887 -0.12485,-0.131551 -0.0425,-0.224294 0.0604,-0.06798 0.0682,-0.09843 0.0283,-0.11233 -0.42168,-0.147398 -1.86429,-1.132373 -2.24842,-1.53503 l -0.1447,-0.151453 0.16628,-0.02426 c 0.0913,-0.01341 0.29225,-0.03679 0.44659,-0.05194 0.50151,-0.04932 1.16569,-0.205074 1.16569,-0.273543 0,-0.01752 -0.11173,-0.06658 -0.24825,-0.108957 -0.13654,-0.04231 -0.40395,-0.149343 -0.59432,-0.237784 -0.67858,-0.315293 -1.01005,-0.775671 -0.56295,-0.782197 l 0.13188,-0.0018 -0.16055,-0.08471 c -0.27167,-0.143464 -0.29642,-0.301041 -0.0553,-0.352471 0.072,-0.01533 0.0611,-0.02987 -0.0648,-0.08803 -0.36895,-0.170383 -0.70724,-0.670261 -0.54472,-0.805131 0.0457,-0.03802 0.12587,-0.01069 0.35584,0.121766 0.63224,0.363902 1.35163,0.580259 1.84669,0.55552 0.24123,-0.01209 0.25393,-0.01744 0.15044,-0.06342 -0.15315,-0.06806 -0.27431,-0.231274 -0.3373,-0.454341 -0.0518,-0.183183 -0.0592,-0.188658 -0.59971,-0.45231 -0.97772,-0.476916 -1.69503,-1.024421 -1.87503,-1.431153 -0.0905,-0.204311 -0.0755,-0.535854 0.0303,-0.680658 0.0506,-0.06912 0.0929,-0.04441 0.482,0.280962 0.54368,0.454745 1.06193,0.800226 1.43149,0.954552 0.28689,0.119838 0.70056,0.209759 0.70056,0.152118 0,-0.01629 -0.21551,-0.275347 -0.47895,-0.575424 -1.08424,-1.235075 -1.58114,-2.044322 -1.45848,-2.375918 0.0758,-0.204758 0.15633,-0.16257 0.69821,0.365979 1.3872,1.353039 2.51342,2.15724 3.24682,2.318908 l 0.12952,0.02864 -0.12952,-0.112996 c -0.3359,-0.292762 -0.53967,-0.510126 -0.53967,-0.576107 0,-0.03986 -0.33579,-0.411382 -0.7461,-0.825699 -0.41031,-0.414308 -0.87728,-0.928377 -1.03785,-1.142079 -0.52034,-0.692458 -0.77862,-1.348484 -0.63581,-1.615324 0.0486,-0.09082 0.0834,-0.06342 0.75115,0.588249 0.73791,0.720157 1.44056,1.321291 1.84805,1.581247 0.3991,0.254612 0.74637,0.363684 0.6095,0.191584 -0.6902,-0.867827 -1.29369,-1.741786 -1.51953,-2.200526 -0.15263,-0.310027 -0.21542,-0.609622 -0.13761,-0.657724 0.0276,-0.01708 0.36745,0.237083 0.79299,0.593303 1.24508,1.042318 2.29748,1.82674 2.92469,2.179947 0.13061,0.0735 0.42203,0.194517 0.64761,0.268829 0.85492,0.281611 1.8372,0.833925 2.56413,1.441262 0.22608,0.188911 0.37853,0.284703 0.45332,0.285351 0.32716,0.0026 1.03611,0.366838 1.59541,0.819638 0.15065,0.121975 0.28015,0.215752 0.28771,0.208113 0.007,-0.0079 -0.0155,-0.12852 -0.0513,-0.268488 -0.0408,-0.159977 -0.0544,-0.325314 -0.0365,-0.445241 0.0281,-0.187762 0.0309,-0.190347 0.16594,-0.161903 0.25863,0.05458 0.74177,0.279885 1.04394,0.48706 0.19365,0.132759 0.52716,0.450926 0.92825,0.885741 0.67067,0.727079 1.16251,1.177435 1.4561,1.333338 0.1075,0.05703 0.20332,0.147634 0.23341,0.220246 0.0817,0.197224 0.37635,0.634431 0.6078,0.902279 0.24268,0.280806 0.64433,0.610368 0.96232,0.789276 0.1187,0.06675 0.29359,0.19365 0.38857,0.281969 0.43665,0.4061 0.68296,0.508173 0.8547,0.354503 0.0806,-0.07183 0.0867,-0.07131 0.13289,0.0071 0.0266,0.04494 0.091,0.132409 0.14302,0.19429 0.0816,0.09718 0.10605,0.105121 0.18113,0.0593 0.0781,-0.04756 0.0967,-0.03557 0.18315,0.118384 0.1435,0.255312 0.33736,0.274935 0.33933,0.03442 8.7e-4,-0.121301 0.0733,-0.127178 0.14874,-0.01217 0.1142,0.174283 0.40988,0.365629 0.56497,0.365629 0.0764,0 0.19116,-0.04082 0.255,-0.09107 0.13314,-0.104718 0.12675,-0.108109 0.18112,0.09074 0.0596,0.217872 0.16335,0.215384 0.37845,-0.0091 0.21554,-0.22495 0.37203,-0.536564 0.37203,-0.741042 0,-0.166801 0.0504,-0.199336 0.30796,-0.199336 0.18648,0 0.37581,0.08191 0.57543,0.248577 0.10866,0.09077 0.15812,0.10322 0.32887,0.08295 0.14849,-0.01761 0.22788,-0.0053 0.3039,0.04888 0.15385,0.108949 1.97259,0.129692 2.24774,0.02567 0.10251,-0.0388 0.27222,-0.06737 0.37711,-0.06342 0.15634,0.0061 0.23316,-0.0219 0.42565,-0.154484 0.1886,-0.129894 0.28363,-0.165285 0.48369,-0.179774 0.27798,-0.02006 0.31028,0.0035 0.33528,0.247235 0.0262,0.25583 0.27314,0.652486 0.49784,0.799726 0.1466,0.09606 0.24724,0.03355 0.24724,-0.153801 0,-0.147458 0.0166,-0.151576 0.1609,-0.03811 0.0603,0.04748 0.17233,0.08638 0.24892,0.08638 0.15083,0 0.41809,-0.158785 0.55081,-0.327513 0.10743,-0.136561 0.14387,-0.131454 0.19967,0.02864 0.0317,0.09109 0.07,0.128309 0.12142,0.118384 0.069,-0.01331 0.24297,-0.227491 0.28436,-0.350438 0.0134,-0.03995 0.0328,-0.03925 0.0836,0.0026 0.0961,0.07928 0.17975,0.03014 0.29379,-0.172705 0.0994,-0.176867 0.10091,-0.177743 0.16291,-0.08437 0.12189,0.183594 0.39048,0.09607 0.7623,-0.248251 0.12011,-0.111219 0.36394,-0.286272 0.54203,-0.389229 0.45994,-0.265912 1.11567,-0.937477 1.41496,-1.449031 0.19199,-0.328118 0.2596,-0.406039 0.43039,-0.496505 0.23009,-0.121852 1.10211,-0.947893 1.52223,-1.441927 0.34521,-0.405943 0.70175,-0.699335 1.12419,-0.925205 0.33404,-0.178601 0.75815,-0.325069 0.82403,-0.284344 0.0579,0.03574 0.0412,0.537711 -0.0239,0.720132 -0.0316,0.08905 -0.0485,0.161904 -0.0375,0.161904 0.0111,0 0.21119,-0.143981 0.44456,-0.319761 0.4944,-0.372435 0.95213,-0.61014 1.31681,-0.683707 0.21663,-0.04363 0.31559,-0.09774 0.60443,-0.330877 0.77535,-0.625847 1.68251,-1.133109 2.54996,-1.42609 0.29135,-0.0984 0.62903,-0.250923 0.82065,-0.370358 0.73141,-0.455866 1.92821,-1.366591 2.97866,-2.266628 0.27681,-0.237179 0.51837,-0.431066 0.53698,-0.431066 z m -18.73952,11.342268 c 0,0 0.19859,0.969285 -1.01493,1.167719 -1.04826,0.245239 -1.01954,1.476548 -1.22877,3.892071 0,0 0.25809,-2.753741 0.9424,-3.480233 a 0.46059793,0.53848775 59.73218 0 0 0.01,0.405434 0.46059793,0.53848775 59.73218 0 0 0.69718,0.126487 0.46059793,0.53848775 59.73218 0 0 0.23308,-0.669191 0.46059793,0.53848775 59.73218 0 0 -0.16696,-0.156508 c 0.39283,-0.158882 0.86739,-0.515364 0.5282,-1.285779 z m -5.24395,0.05396 c -0.33905,0.770126 0.13545,1.12681 0.52821,1.28578 a 0.53848779,0.46059793 30.26782 0 0 -0.16662,0.156498 0.53848779,0.46059793 30.26782 0 0 0.23307,0.669201 0.53848779,0.46059793 30.26782 0 0 0.69718,-0.126146 0.53848779,0.46059793 30.26782 0 0 0.01,-0.405775 c 0.68432,0.726491 0.9424,3.480565 0.9424,3.480565 -0.20923,-2.415523 -0.1805,-3.647165 -1.22877,-3.892404 -1.2135,-0.198432 -1.01526,-1.167719 -1.01526,-1.167719 z m 5.55425,0.892486 c 0,0 0.40847,0.493465 0.15753,1.01695 0,0 -0.16731,0.550475 -1.3438,0.94983 0,0 -0.96795,0.130612 -1.27362,3.988195 0,0 0.63676,-3.595998 1.44464,-3.771988 0,0 2.38141,-0.88553 1.01525,-2.182987 z m 0,0 c 1.29691,0.583317 1.65109,2.373563 -0.2624,2.909522 0,0 -2.34255,0.442673 -2.09394,6.716244 0,0 -0.2118,-5.85207 2.40223,-6.476761 1.44005,-0.414474 2.1946,-2.393237 -0.0459,-3.149005 z m -5.86422,0.05431 c -2.24048,0.755777 -1.48593,2.734189 -0.0459,3.148664 2.61403,0.624708 2.40222,6.476768 2.40222,6.476768 0.24862,-6.27357 -2.09394,-6.716243 -2.09394,-6.716243 -1.91351,-0.53595 -1.55932,-2.325872 -0.26241,-2.909189 z m 0,0 c -1.36614,1.297465 1.01526,2.182654 1.01526,2.182654 0.80787,0.17599 1.44464,3.771978 1.44464,3.771978 -0.30567,-3.857573 -1.27363,-3.988186 -1.27363,-3.988186 -1.17649,-0.399363 -1.34379,-0.94983 -1.34379,-0.94983 -0.25096,-0.523484 0.15752,-1.016616 0.15752,-1.016616 z m 2.93178,2.529387 c -0.025,-6.48e-4 -0.0501,0.0026 -0.0742,0.0095 -0.11819,0.03057 -0.19496,0.144348 -0.21047,0.261068 -0.0252,0.180326 0.006,0.363386 0.0459,0.539332 0.0532,0.21266 0.12622,0.420791 0.21924,0.619277 0.006,0.02523 0.0213,0.01121 0.0266,-0.0053 0.12633,-0.272867 0.22858,-0.56047 0.26781,-0.859768 0.0102,-0.110604 0.0178,-0.225037 -0.008,-0.333925 -0.0289,-0.12251 -0.13821,-0.225152 -0.26613,-0.230372 z"
       id="path3063-0-64-62-6" />
    <text
       xml:space="preserve"
       style="font-style:normal;font-weight:normal;font-size:12.00070286px;line-height:1.25;font-family:sans-serif;letter-spacing:0px;word-spacing:0px;fill:#8853a9;fill-opacity:1;stroke:none;stroke-width:0.40911481;opacity:1;"
       x="250.53732"
       y="-36.337368"
       id="text1397-0"><tspan
         sodipodi:role="line"
         id="tspan1395-2"
         x="250.53732"
         y="-36.337368"
         style="font-style:normal;font-variant:normal;font-weight:bold;font-stretch:normal;font-size:19.59298897px;font-family:sans-serif;-inkscape-font-specification:'sans-serif, Bold';font-variant-ligatures:normal;font-variant-caps:normal;font-variant-numeric:normal;font-feature-settings:normal;text-align:start;writing-mode:lr-tb;text-anchor:start;fill:#8853a9;fill-opacity:1;stroke-width:0.40911481;">REALM</tspan></text>
    <text
       xml:space="preserve"
       style="font-style:normal;font-weight:normal;font-size:17.64572334px;line-height:1.25;font-family:sans-serif;letter-spacing:0px;word-spacing:0px;opacity:1;fill:#88b5a9;fill-opacity:1;stroke:none;stroke-width:0.60155869;"
       x="174.62117"
       y="-36.345356"
       id="text456-2"><tspan
         sodipodi:role="line"
         x="174.62117"
         y="-36.345356"
         style="font-style:normal;font-variant:normal;font-weight:bold;font-stretch:normal;font-size:18.71716309px;font-family:sans-serif;-inkscape-font-specification:'sans-serif, Bold';font-variant-ligatures:normal;font-variant-caps:normal;font-variant-numeric:normal;font-feature-settings:normal;text-align:start;writing-mode:lr-tb;text-anchor:start;fill:#88b5a9;fill-opacity:1;stroke-width:0.60155869;"
         id="tspan1281-8">Open</tspan></text>
  </g>
</svg>
